<svg width="163" height="226" viewBox="0 0 163 226" fill="none" xmlns="http://www.w3.org/2000/svg">
<g clip-path="url(#clip0_14_86)">
<path d="M83.4297 16.8108H79.4546C77.8278 16.8108 76.5005 18.1439 76.5005 19.7778V31.8374C76.5005 33.4713 77.8278 34.8044 79.4546 34.8044H83.4297C85.0565 34.8044 86.3838 33.4713 86.3838 31.8374V19.7778C86.3838 18.1439 85.0565 16.8108 83.4297 16.8108ZM85.0225 31.8374C85.0225 32.7193 84.3078 33.4371 83.4297 33.4371H79.4546C78.5765 33.4371 77.8618 32.7193 77.8618 31.8374V19.7778C77.8618 18.8959 78.5765 18.1781 79.4546 18.1781H83.4297C84.3078 18.1781 85.0225 18.8959 85.0225 19.7778V31.8374Z" fill="#E14E39"/>
<path d="M161.462 16.8109H159.692V5.95457C159.692 2.67306 157.031 0 153.763 0C151.197 0 149.019 1.64759 148.195 3.93781C146.528 1.55872 143.771 0 140.66 0H22.2307C19.12 0 16.3701 1.55872 14.6957 3.93781C13.8721 1.64759 11.6871 0 9.12778 0C5.85376 0 3.19915 2.67306 3.19915 5.95457V16.8109H1.53831C0.694283 16.8109 0 17.5014 0 18.3559V33.2663C0 34.114 0.687477 34.8113 1.53831 34.8113H3.19915V220.052C3.19915 223.334 5.86057 226.007 9.12778 226.007C12.395 226.007 15.0564 223.334 15.0564 220.052V35.1463H67.7811V216.518C67.7811 221.748 72.0149 226 77.222 226H85.6759C90.883 226 95.1168 221.748 95.1168 216.518V35.1463H147.841V220.045C147.841 223.327 150.503 226 153.77 226C157.037 226 159.699 223.327 159.699 220.045V34.8045H161.469C162.313 34.8045 163.007 34.114 163.007 33.2594V18.3491C163.007 17.5014 162.319 16.804 161.469 16.804L161.462 16.8109ZM1.53831 33.4372C1.44302 33.4372 1.36134 33.3551 1.36134 33.2594V18.3491C1.36134 18.2534 1.44302 18.1713 1.53831 18.1713H3.19915V33.4303H1.53831V33.4372ZM140.66 2.05094C144.615 2.05094 147.835 5.28459 147.835 9.25658C147.835 13.2286 144.615 16.4622 140.66 16.4622H95.1168V9.47535C95.1168 6.46046 93.7078 3.78057 91.5229 2.0441H140.667L140.66 2.05094ZM147.835 15.0607V16.4691H146.433C146.95 16.052 147.419 15.5803 147.835 15.0607ZM22.2307 2.05094H71.375C69.1901 3.7874 67.7811 6.47414 67.7811 9.48218V16.4691H22.2307C18.276 16.4691 15.0564 13.2354 15.0564 9.26342C15.0564 5.28459 18.276 2.05094 22.2307 2.05094ZM16.4586 16.4691H15.0564V15.0607C15.4716 15.5803 15.9413 16.052 16.4586 16.4691ZM13.0076 220.045C13.0076 222.199 11.2651 223.949 9.12098 223.949C6.97687 223.949 5.23435 222.199 5.23435 220.045V5.95457C5.23435 3.80108 6.97687 2.05094 9.12098 2.05094C11.2651 2.05094 13.0076 3.80108 13.0076 5.95457V9.26342V16.4759V35.1531V220.052V220.045ZM15.0496 33.0953V18.52H67.7743V33.0953H15.0496ZM93.068 216.518C93.068 220.62 89.7463 223.949 85.6691 223.949H77.2152C73.1312 223.949 69.8163 220.613 69.8163 216.518V9.48218C69.8163 5.3803 73.138 2.05094 77.2152 2.05094H85.6691C89.7531 2.05094 93.068 5.38714 93.068 9.48218V216.518ZM95.11 33.0953V18.52H147.835V33.0953H95.11ZM157.65 220.045C157.65 222.199 155.907 223.949 153.763 223.949C151.619 223.949 149.877 222.199 149.877 220.045V5.95457C149.877 3.80108 151.619 2.05094 153.763 2.05094C155.907 2.05094 157.65 3.80108 157.65 5.95457V220.052V220.045ZM161.639 33.2663C161.639 33.362 161.557 33.444 161.462 33.444H159.692V18.185H161.462C161.557 18.185 161.639 18.267 161.639 18.3628V33.2731V33.2663Z" fill="#E14E39"/>
<path d="M153.763 27.0383C154.44 27.0383 154.988 26.4873 154.988 25.8077C154.988 25.1281 154.44 24.5771 153.763 24.5771C153.087 24.5771 152.538 25.1281 152.538 25.8077C152.538 26.4873 153.087 27.0383 153.763 27.0383Z" fill="#E14E39"/>
<path d="M9.12096 27.0383C9.79762 27.0383 10.3462 26.4873 10.3462 25.8077C10.3462 25.1281 9.79762 24.5771 9.12096 24.5771C8.44429 24.5771 7.89575 25.1281 7.89575 25.8077C7.89575 26.4873 8.44429 27.0383 9.12096 27.0383Z" fill="#E14E39"/>
</g>
<defs>
<clipPath id="clip0_14_86">
<rect width="163" height="226" fill="white"/>
</clipPath>
</defs>
</svg>
