<svg width="157" height="269" viewBox="0 0 157 269" fill="none" xmlns="http://www.w3.org/2000/svg">
<g clip-path="url(#clip0_14_67)">
<path d="M157 2.51471C157 1.13134 155.875 0.00735845 154.499 0.00735845H2.50116C2.50116 0.00735845 2.50116 0.00735845 2.494 0.00735845C1.118 0.000153413 0 1.13134 0 2.51471V9.99354C0 9.99354 0 10.0007 0 10.0079C0 10.0152 0 10.0152 0 10.0224V258.985C0 258.985 0 258.992 0 259C0 259.007 0 259.007 0 259.014V266.493C0 267.876 1.118 269.007 2.494 269.007H154.484C155.86 269.007 156.979 267.883 156.986 266.5V259.021C156.986 259.021 156.986 259.014 156.986 259.007C156.986 259.007 156.986 259 156.986 258.992V10.0224C156.986 10.0224 156.986 10.0152 156.986 10.0079C156.986 10.0079 156.986 10.0007 156.986 9.99354V2.51471H157ZM2.50833 266.795C2.33633 266.795 2.20016 266.659 2.20016 266.486V260.109H154.807V266.478C154.807 266.651 154.671 266.788 154.499 266.788H2.50833V266.795ZM154.492 2.20489C154.664 2.20489 154.8 2.34179 154.8 2.51471V8.89117H2.193V2.51471C2.193 2.34179 2.32916 2.20489 2.50116 2.20489H154.492ZM145.935 192.194V219.768H11.0653V192.194C11.0653 192.115 11.0582 192.043 11.0438 191.971V73.0592C11.0582 72.9872 11.0653 72.9151 11.0653 72.8359V49.2322H145.935V72.8359C145.935 72.9151 145.942 72.9872 145.956 73.0592V191.971C145.942 192.043 145.935 192.115 145.935 192.194ZM145.935 47.0274H11.0653V11.1247H145.935V47.0274ZM11.0653 221.973H145.935V257.876H11.0653V221.973ZM2.50116 11.1247H8.84366V257.883H2.193V11.1247H2.50116ZM154.492 257.876H148.149V11.1247H154.8V257.883H154.492V257.876Z" fill="#E14E39"/>
</g>
<defs>
<clipPath id="clip0_14_67">
<rect width="157" height="269" fill="white"/>
</clipPath>
</defs>
</svg>
