<svg width="252" height="83" viewBox="0 0 252 83" fill="none" xmlns="http://www.w3.org/2000/svg">
<g clip-path="url(#clip0_14_70)">
<path d="M252 6.52655C252 5.02153 250.771 3.79147 249.267 3.79147H240.654V2.74231C240.654 1.23729 239.425 0.00723564 237.913 0.00723564H223.819C223.819 0.00723564 223.819 0.00723564 223.812 0.00723564C223.082 0.00723564 222.402 0.296661 221.888 0.810391C221.368 1.33136 221.086 2.01874 221.086 2.74954V3.79871H30.9215V2.74954C30.9215 2.01874 30.6394 1.33136 30.1188 0.810391C29.6053 0.289425 28.9256 0 28.1952 0C28.1952 0 28.1952 0 28.1808 0H14.0867C12.5754 0 11.346 1.23006 11.346 2.74231V3.79147H2.74067C2.74067 3.79147 2.74067 3.79147 2.73344 3.79147C1.22931 3.79147 0.00720215 5.02153 0.00720215 6.52655V11.6856C0.00720215 13.1978 1.23654 14.4206 2.7479 14.4279H11.3605V80.2649C11.3605 81.7772 12.5898 83.0072 14.1012 83.0072H28.1952C28.9256 83.0072 29.6126 82.725 30.126 82.2041C30.6394 81.6903 30.9287 80.9957 30.9287 80.2649V60.7432H221.078V80.2649C221.078 80.9957 221.361 81.6831 221.881 82.2041C222.395 82.7178 223.082 83.0072 223.812 83.0072H237.906C239.417 83.0072 240.647 81.7772 240.647 80.2722V14.4279H249.259C249.259 14.4279 249.259 14.4279 249.267 14.4279C250.771 14.4279 251.993 13.1978 251.993 11.6928V6.53378L252 6.52655ZM222.763 2.74231C222.763 2.46012 222.872 2.19963 223.067 2.00427C223.262 1.80891 223.53 1.70037 223.805 1.70037H237.892C238.47 1.70037 238.94 2.17069 238.94 2.74954V3.79147H222.749V2.74231H222.763ZM13.0454 2.74231C13.0454 2.16346 13.5155 1.69314 14.094 1.69314H28.1808C28.4628 1.69314 28.7231 1.80167 28.9184 1.99704C29.1136 2.1924 29.2221 2.46012 29.2221 2.73507V3.78424H13.0382V2.73507L13.0454 2.74231ZM1.69212 6.52655C1.69212 5.94769 2.16216 5.47738 2.74067 5.47738H249.252C249.831 5.47738 250.301 5.94769 250.301 6.52655V11.6783C250.301 12.2572 249.831 12.7275 249.252 12.7275H230.877C230.877 12.7275 230.863 12.7275 230.855 12.7275C230.848 12.7275 230.841 12.7275 230.834 12.7275H21.1591C21.1591 12.7275 21.1446 12.7275 21.1374 12.7275C21.1301 12.7275 21.1229 12.7275 21.1157 12.7275H2.74067C2.16216 12.7275 1.69212 12.2572 1.69212 11.6783V6.51931V6.52655ZM230.855 14.4857C233.516 14.4857 235.686 16.6564 235.686 19.3192C235.686 21.9819 233.516 24.1526 230.855 24.1526C228.194 24.1526 226.025 21.9819 226.025 19.3192C226.025 16.6564 228.194 14.4857 230.855 14.4857ZM221.071 51.8868H30.9215V14.4279H221.071V51.894V51.8868ZM21.1374 14.4857C23.7985 14.4857 25.9679 16.6564 25.9679 19.3192C25.9679 19.3264 25.9679 19.3409 25.9679 19.3481C25.9535 22.0036 23.7913 24.1526 21.1374 24.1526C18.4834 24.1526 16.3068 21.9819 16.3068 19.3192C16.3068 16.6564 18.4762 14.4857 21.1374 14.4857ZM13.0454 14.4279H16.7479C15.4029 15.6362 14.5568 17.38 14.5568 19.3192C14.5568 22.9514 17.5072 25.9036 21.1374 25.9036C24.7675 25.9036 27.718 22.9514 27.718 19.3192C27.718 17.38 26.8646 15.6362 25.5268 14.4279H29.2293V80.2649C29.2293 80.5471 29.1208 80.8076 28.9256 81.003C28.7303 81.1983 28.4628 81.3069 28.188 81.3069H14.094C13.5155 81.3069 13.0454 80.8365 13.0454 80.2577V14.4279ZM30.9215 59.05V53.5871H221.071V59.05H30.9215ZM238.955 80.2577C238.955 80.8365 238.484 81.3069 237.906 81.3069H223.812C223.53 81.3069 223.27 81.1983 223.074 81.003C222.879 80.8076 222.771 80.5399 222.771 80.2649V14.4279H226.473C225.128 15.6362 224.282 17.38 224.282 19.3192C224.282 22.9514 227.232 25.9036 230.863 25.9036C234.493 25.9036 237.443 22.9514 237.443 19.3192C237.443 19.3047 237.443 19.2974 237.443 19.283C237.436 17.3511 236.583 15.6217 235.252 14.4206H238.955V80.2577Z" fill="#E14E39"/>
</g>
<defs>
<clipPath id="clip0_14_70">
<rect width="252" height="83" fill="white"/>
</clipPath>
</defs>
</svg>
