<svg width="174" height="37" viewBox="0 0 174 37" fill="none" xmlns="http://www.w3.org/2000/svg">
<path d="M5.4388 35.1329C3.65859 33.9614 2.3038 32.2663 1.38097 30.041C0.458142 27.8158 0 25.152 0 22.0432C0 18.9343 0.497411 16.4538 1.49878 14.2482C2.4936 12.0426 3.91384 10.3736 5.75295 9.24138C7.59207 8.10911 9.79769 7.54625 12.3698 7.54625C13.8293 7.54625 15.099 7.69678 16.192 8.00439C17.285 8.312 18.1751 8.74397 18.8689 9.30028C19.5561 9.8566 20.4789 10.498 20.9371 11.2245H21.3952L20.708 0H34.5701V36.4223H20.708C20.8258 34.4654 21.6047 32.5084 21.6832 30.5581H21.1662C20.78 31.8212 19.8834 32.9142 19.1569 33.8371C18.4304 34.7599 17.4683 35.4995 16.2837 36.0492C15.0925 36.6055 13.6592 36.8804 11.9706 36.8804C9.39845 36.8804 7.22555 36.2979 5.44534 35.1264L5.4388 35.1329ZM18.9802 26.9322C19.5168 26.5853 19.9357 26.0486 20.2433 25.3222C20.5509 24.5957 20.7015 23.6925 20.7015 22.6191V20.6033C20.6622 19.9161 20.4986 19.3009 20.2106 18.7642C19.9226 18.2275 19.5103 17.7955 18.9736 17.4683C18.4369 17.1411 17.8414 16.9774 17.1934 16.9774C16.4669 16.9774 15.8583 17.1672 15.3805 17.5534C14.9027 17.9395 14.5166 18.5024 14.2286 19.2485C13.9406 19.9946 13.7966 20.9633 13.7966 22.1544C13.7966 23.3456 13.9275 24.275 14.2024 25.0604C14.4707 25.8457 14.8569 26.4413 15.3543 26.8406C15.8517 27.2464 16.4669 27.4427 17.1934 27.4427C17.8479 27.4427 18.4369 27.2725 18.9736 26.9257L18.9802 26.9322Z" fill="black"/>
<path d="M36.1081 8.01099H51.2333L53.6484 24.0001H55.4221L58.472 8.01099H71.012L73.9441 24.0001H75.7766L77.6223 8.01099H90.3848L83.7156 36.4223H65.259L62.6738 22.9071H62.556L59.9642 36.4223H42.7708L36.1016 8.01099H36.1081Z" fill="black"/>
<path d="M89.881 25.0343C90.5354 23.9217 91.5499 23.0512 92.9309 22.4164C94.3118 21.7815 96.0921 21.4674 98.278 21.4674H107.251V19.1636C107.251 18.5876 107.133 18.0902 106.904 17.6648C106.675 17.2459 106.368 16.9252 105.981 16.7158C105.595 16.5063 105.078 16.4016 104.43 16.4016C103.435 16.4016 102.715 16.6045 102.27 17.0037C101.832 17.4095 101.583 18.0509 101.609 18.9279C101.616 19.2486 101.609 19.6021 101.609 20.0209H89.9857C89.8351 19.3337 89.7566 18.6203 89.7566 17.8938C89.7566 15.7079 90.2933 13.8491 91.3666 12.3176C92.44 10.7861 94.1089 9.60803 96.3735 8.78337C98.638 7.95871 101.531 7.54639 105.059 7.54639C108.586 7.54639 111.787 8.06343 114.202 9.09752C116.617 10.1316 118.384 11.6108 119.497 13.5284C120.609 15.4461 121.166 17.6517 121.166 20.1453V36.4224H107.245C107.323 35.3883 107.467 34.5309 107.533 33.8634C107.611 33.0911 107.781 32.3188 107.82 31.2454H107.362C107.094 32.3973 106.623 33.3921 105.955 34.2364C105.281 35.0807 104.345 35.7221 103.134 36.1606C101.924 36.5991 100.457 36.8217 98.7362 36.8217C96.3997 36.8217 94.5016 36.4748 93.0421 35.7876C91.5826 35.1004 90.5289 34.1513 89.881 32.9405C89.2265 31.7297 88.9058 30.4011 88.9058 28.9416C88.9058 27.4821 89.233 26.1404 89.881 25.0278V25.0343ZM105.641 29.5241C106.099 29.295 106.485 28.9416 106.793 28.4573C107.101 27.9795 107.251 27.4494 107.251 26.8734V25.9506H103.802C103.305 25.9506 102.892 26.0291 102.565 26.1797C102.238 26.3302 101.989 26.5462 101.819 26.8145C101.649 27.0829 101.557 27.4101 101.557 27.7897C101.557 28.4769 101.766 29.0005 102.192 29.3409C102.611 29.6877 103.206 29.8579 103.972 29.8579C104.627 29.8579 105.183 29.7401 105.641 29.511V29.5241Z" fill="black"/>
<path d="M123.587 0H137.619L136.592 36.4223H124.621L123.594 0H123.587Z" fill="black"/>
<path d="M140.381 0H154.413L153.386 36.4223H141.415L140.388 0H140.381Z" fill="black"/>
<path d="M156.907 27.9466C156.907 22.8612 160.278 19.4709 165.33 19.4709C170.383 19.4709 173.754 22.8612 173.754 27.9466C173.754 33.0319 170.383 36.4222 165.33 36.4222C160.278 36.4222 156.907 33.0123 156.907 27.9466ZM165.324 34.4653C169.323 34.4653 171.692 32.0371 171.692 27.9531C171.692 23.8691 169.316 21.441 165.324 21.441C161.331 21.441 158.956 23.8691 158.956 27.9531C158.956 32.0371 161.331 34.4653 165.324 34.4653ZM161.992 23.4306H165.134C167.759 23.4306 168.845 24.6414 168.845 26.3954C168.845 27.8026 168.276 28.8432 166.849 29.2883L168.845 32.5738H166.79L164.918 29.5435H163.917V32.5738H161.992V23.4371V23.4306ZM165.435 27.7895C166.541 27.7895 166.914 27.2921 166.914 26.3954C166.914 25.7868 166.541 25.1846 165.435 25.1846H163.917V27.7895H165.435Z" fill="black"/>
</svg>
