<svg width="104" height="59" viewBox="0 0 104 59" fill="none" xmlns="http://www.w3.org/2000/svg">
<g clip-path="url(#clip0_14_107)">
<path d="M52 59C51.8149 59 51.6358 58.9642 51.4567 58.8986L0.925479 38.8818C0.364221 38.661 0 38.1179 0 37.5211V21.485C0 20.8822 0.370192 20.3451 0.925479 20.1242L51.4626 0.101484C51.8089 -0.0357811 52.197 -0.0357811 52.5434 0.101484L103.075 20.1183C103.636 20.3391 104 20.8822 104 21.479V37.5151C104 38.1179 103.63 38.655 103.075 38.8758L52.5434 58.8926C52.3702 58.9642 52.1851 58.9941 52 58.9941V59ZM2.93168 36.5244L52 55.9623L101.068 36.5244V22.4816L52 3.04373L2.93168 22.4816V36.5244ZM52 42.7013C51.8268 42.7013 51.6537 42.6715 51.4925 42.6118L20.2352 31.0159C19.662 30.8011 19.2798 30.252 19.2798 29.6433C19.2798 29.0345 19.662 28.4795 20.2352 28.2706L51.4925 16.6747C51.8209 16.5554 52.1851 16.5554 52.5135 16.6747L83.7708 28.2706C84.344 28.4855 84.7261 29.0345 84.7261 29.6433C84.7261 30.252 84.344 30.807 83.7708 31.0159L52.5135 42.6118C52.3463 42.6715 52.1791 42.7013 52.006 42.7013H52ZM24.9581 29.6433L52 39.6755L79.0419 29.6433L52 19.611L24.9581 29.6433Z" fill="#E14E39"/>
<path d="M56.0243 33.248C56.5259 32.7645 56.9199 32.2035 57.2006 31.559C57.4812 30.9145 57.6245 30.2281 57.6245 29.5V29.4642C57.6245 28.7361 57.4872 28.0558 57.2125 27.4172C56.9379 26.7786 56.5498 26.2176 56.0482 25.7342C55.5467 25.2508 54.9555 24.8748 54.2749 24.6003C53.5942 24.3257 52.8419 24.1885 52.0298 24.1885C51.2178 24.1885 50.4655 24.3317 49.7729 24.6122C49.0862 24.8927 48.4891 25.2747 47.9876 25.7581C47.486 26.2415 47.0919 26.8025 46.8113 27.447C46.5307 28.0916 46.3874 28.7779 46.3874 29.506V29.5418C46.3874 30.2699 46.5247 30.9503 46.7994 31.5888C47.074 32.2274 47.4621 32.7824 47.9637 33.2599C48.4652 33.7373 49.0564 34.1133 49.737 34.3938C50.4177 34.6743 51.17 34.8175 51.9821 34.8175C52.7941 34.8175 53.5464 34.6743 54.239 34.3938C54.9257 34.1133 55.5228 33.7314 56.0243 33.248ZM54.1435 29.5418C54.1435 29.8402 54.0957 30.1326 53.9942 30.4072C53.8927 30.6817 53.7554 30.9264 53.5703 31.1293C53.3912 31.3382 53.1643 31.4993 52.9016 31.6187C52.6389 31.738 52.3463 31.7977 52.0179 31.7977C51.6895 31.7977 51.4148 31.738 51.1521 31.6127C50.8894 31.4874 50.6625 31.3203 50.4655 31.1174C50.2684 30.9085 50.1192 30.6698 50.0117 30.3952C49.9042 30.1207 49.8505 29.8283 49.8505 29.512V29.4762C49.8505 29.1778 49.8982 28.8853 49.9997 28.6108C50.1012 28.3363 50.2386 28.0916 50.4237 27.8887C50.6028 27.6798 50.8297 27.5186 51.0924 27.3993C51.3551 27.2799 51.6477 27.2202 51.9761 27.2202C52.3045 27.2202 52.5791 27.2859 52.8419 27.4052C53.1046 27.5306 53.3315 27.6977 53.5285 27.9006C53.7255 28.1095 53.8748 28.3482 53.9823 28.6227C54.0898 28.8973 54.1435 29.1957 54.1435 29.506V29.5418Z" fill="#E14E39"/>
</g>
<defs>
<clipPath id="clip0_14_107">
<rect width="104" height="59" fill="white"/>
</clipPath>
</defs>
</svg>
